<svg width="48" height="48" viewBox="0 0 48 48" fill="none" xmlns="http://www.w3.org/2000/svg">
<path d="M0 24C0 10.7452 10.7452 0 24 0V0C37.2548 0 48 10.7452 48 24V24C48 37.2548 37.2548 48 24 48V48C10.7452 48 0 37.2548 0 24V24Z" fill="url(#paint0_radial_46_5055)"/>
<path d="M24 33C28.9706 33 33 28.9706 33 24C33 19.0294 28.9706 15 24 15C19.0294 15 15 19.0294 15 24C15 28.9706 19.0294 33 24 33Z" stroke="white" stroke-width="2" stroke-linecap="round" stroke-linejoin="round"/>
<path d="M18.6584 31.2444C19.9934 29.0327 21.8773 27.2036 24.1273 25.9343C26.3773 24.6651 28.9171 23.9987 31.5004 24C32.0064 24 32.5061 24.0247 32.9995 24.074" stroke="white" stroke-width="2" stroke-linecap="round" stroke-linejoin="round"/>
<path d="M29.6277 16.9771C28.2224 18.7044 26.4494 20.0964 24.438 21.0518C22.4265 22.0072 20.2273 22.5018 18.0005 22.4996C17.052 22.5001 16.1056 22.411 15.1738 22.2337" stroke="white" stroke-width="2" stroke-linecap="round" stroke-linejoin="round"/>
<path d="M20.0559 15.9082C22.3114 17.2316 24.1816 19.122 25.4807 21.3917C26.7798 23.6613 27.4626 26.2313 27.4615 28.8464C27.4623 30.0717 27.3134 31.2925 27.0179 32.4817" stroke="white" stroke-width="2" stroke-linecap="round" stroke-linejoin="round"/>
<defs>
<radialGradient id="paint0_radial_46_5055" cx="0" cy="0" r="1" gradientUnits="userSpaceOnUse" gradientTransform="translate(68.4 6.6) rotate(132.769) scale(65.3862)">
<stop stop-color="white"/>
<stop offset="1" stop-color="#7012CE"/>
</radialGradient>
</defs>
</svg>
