<svg width="1137" height="1682" viewBox="0 0 1137 1682" fill="none" xmlns="http://www.w3.org/2000/svg">
<path d="M4.29309 1401.12C6.06995 1388.99 14.335 1350.34 22.6602 1315.23C36.5887 1256.49 37.6385 1248.53 35.8152 1215.48C34.5049 1191.73 35.2042 1178.2 37.8802 1175.52C40.1058 1173.3 51.1133 1171.32 62.3419 1171.12C73.5704 1170.91 86.8944 1169.47 91.9519 1167.9C97.0095 1166.33 86.2222 1165.89 67.9794 1166.92C26.0734 1169.28 22.7683 1166.69 30.8204 1137.81C33.8257 1127.03 37.3303 1109.87 38.6084 1099.69C41.6522 1075.44 34.124 1006.51 25.3827 978.59C16.2379 949.384 16.6631 934.675 27.3124 911.828C37.2454 890.519 47.1179 883.354 62.0444 886.629C67.6117 887.85 76.1311 887.385 80.9772 885.594C89.2473 882.539 88.7832 882.01 73.3978 876.97C48.201 868.715 43.8645 857.192 44.5819 800.391C44.9919 767.921 43.1775 745.065 38.3895 722.381L31.6173 690.298L40.371 678.471C47.1936 669.254 49.734 659.715 51.8855 635.233C58.0249 565.378 53.7516 477.717 41.9746 431.928C38.9677 420.235 37.4066 409.215 38.5056 407.438C39.6045 405.661 52.0796 399.79 66.2275 394.39C80.3756 388.99 91.9508 384.03 91.9508 383.369C91.9508 382.707 79.4181 379.215 64.1005 375.608C44.609 371.018 35.0863 366.878 32.3738 361.814C26.7212 351.264 31.9946 276.121 41.1654 236.539C52.2455 188.715 51.7878 179.316 37.459 160.438C16.629 132.995 11.1949 117.955 11.1467 87.6066C11.1119 66.2332 13.0483 55.928 19.775 41.6797C36.1104 7.07956 58.0618 -3.1579 107.427 0.803033C124.205 2.14907 171.036 4.77376 211.498 6.63569C251.961 8.49761 305.754 12.1118 331.044 14.6674C398.889 21.5236 635.889 20.6711 744.857 13.1791C862.095 5.1182 986.671 1.87583 1009.69 6.28616C1024.66 9.15328 1030.91 12.9187 1043.26 26.5097C1063.52 48.8225 1085.02 93.8473 1107.9 161.914C1125.89 215.435 1126.89 220.511 1129.59 271.315C1131.15 300.618 1133.61 335.084 1135.07 347.91C1137.09 365.675 1136.54 371.952 1132.79 374.267C1128.89 376.68 1128.8 378.423 1132.37 382.727C1135.86 386.921 1136.02 400.075 1133.09 440.875C1131.01 469.876 1129.28 506.829 1129.23 522.996C1129.13 562.928 1125.87 580.554 1118.21 582.554C1113.97 583.66 1112.49 586.871 1113.58 592.567C1114.46 597.178 1111.85 617.305 1107.77 637.294C1103.7 657.282 1099.22 686.418 1097.82 702.041C1095.32 729.967 1095.44 730.504 1104.47 733.935C1109.52 735.855 1117.06 742.2 1121.22 748.036C1128.39 758.089 1128.8 763.846 1129.03 857.598C1129.17 912.02 1130.67 969.776 1132.36 985.941C1137.69 1036.93 1124.03 1060.22 1101.3 1038.89C1091.83 1030 1084.66 1031.68 1092.39 1040.97C1095.52 1044.74 1096.84 1057.7 1096.41 1080.56C1096.01 1102.37 1098.64 1129.9 1103.77 1157.43C1110.05 1191.11 1111.07 1204.92 1108.55 1221.7C1105.61 1241.21 1104.21 1243.62 1092.45 1249.36C1085.37 1252.81 1082.22 1255.72 1085.45 1255.81C1088.67 1255.91 1094.25 1259.24 1097.85 1263.2C1103.34 1269.27 1103.97 1274.21 1101.8 1294.4L1099.23 1318.38L1109.64 1316.48C1127.62 1313.19 1131.13 1318.72 1130.62 1349.5C1130.18 1376.85 1129.87 1377.67 1098.84 1435.04C1056.51 1513.3 1010.01 1591.31 996.536 1606.64C977.771 1627.98 955.971 1626.64 930.147 1602.53L920.488 1593.51L918.193 1605.71C915.034 1622.49 896.366 1660.74 887.908 1667.77C873.691 1679.57 852.024 1683.26 810.458 1680.94C749.125 1677.53 732.154 1673.65 698.262 1655.29C663.384 1636.41 609.262 1616.78 549.201 1601.23C483.098 1584.13 430.627 1581.3 273.231 1586.37C198.822 1588.77 120.561 1592.18 99.3192 1593.95C36.4619 1599.19 11.5043 1594.03 4.3623 1574.3C-0.727051 1560.24 -0.769409 1435.74 4.30334 1401.12L4.29309 1401.12ZM1081.41 756.298C1083.43 756.298 1085.09 754.644 1085.09 752.624C1085.09 750.603 1083.43 748.949 1081.41 748.949C1079.38 748.949 1077.73 750.603 1077.73 752.624C1077.73 754.644 1079.38 756.298 1081.41 756.298Z" fill="#FDFBF2"/>
<path d="M4.48938 1404.81C6.39685 1394.7 15.4569 1355.49 24.6233 1317.66C39.7377 1255.29 41.1652 1245.54 39.9598 1212.95L38.6309 1177.02L65.0127 1174.38C79.5231 1172.94 96.9034 1169.22 103.635 1166.14C115.426 1160.73 114.796 1160.61 86.4481 1163.05C48.6217 1166.31 37.1825 1166.01 32.8048 1161.64C30.5251 1159.36 31.4266 1149.65 35.3254 1134.48C43.7224 1101.82 40.6807 1019.07 29.7308 982.289C20.7982 952.28 20.068 933.403 27.2031 916.942C37.1881 893.908 41.8308 890.587 66.8303 888.599C93.1514 886.507 94.7628 882.094 72.2417 873.784C49.1365 865.259 46.5131 856.658 45.9385 787.545C45.6422 751.892 43.7462 724.689 41.1204 718.416C34.6805 703.032 35.853 688.688 44.4424 677.78C61.2416 656.448 61.9972 497.631 45.6044 433.582C42.3146 420.728 41.0654 409.027 42.8158 407.464C44.5597 405.906 59.0897 399.943 75.1045 394.212C91.1194 388.482 101.879 382.945 99.0129 381.908C96.1469 380.871 80.5619 376.646 64.3773 372.519L34.9509 365.016L35.5881 316.941C36.0392 282.917 38.4583 259.475 43.8643 236.738C55.4291 188.1 54.4203 176.469 36.694 154.069C17.2151 129.455 14.4078 121.077 14.3329 87.3712C14.2644 56.2809 19.1097 40.8935 34.8345 22.2672C50.8854 3.25223 66.4308 -1.61069 103.001 0.945553C120.197 2.14699 159.923 4.72127 191.28 6.66626C222.637 8.61125 279.742 13.0234 318.181 16.4711C421.788 25.7641 616.245 24.9297 759.87 14.5758C820.727 10.1888 901.834 6.22828 940.115 5.77478C1018.37 4.84735 1023.22 6.04253 1044.56 31.5119C1073 65.4739 1119.4 186.789 1125.72 243.73C1134.29 320.913 1137.28 372.143 1133.3 373.469C1128.11 375.195 1127.99 385.227 1133.15 385.227C1135.73 385.227 1136.31 393.63 1134.87 410.028C1133.67 423.668 1131.15 462.11 1129.27 495.452C1127.39 528.793 1124.72 561.602 1123.34 568.356C1121 579.829 1120.09 580.48 1109.41 578.252C1103.13 576.941 1091.36 575.204 1083.27 574.393L1068.56 572.919L1083.65 576.549C1091.96 578.545 1102.13 583.848 1106.27 588.335L1113.78 596.491L1105.07 636.906C1099.99 660.456 1096.31 689.972 1096.25 707.634C1096.15 735.461 1096.75 737.946 1103.45 737.946C1107.9 737.946 1114.57 743.698 1120.5 752.653C1130.22 767.326 1130.24 767.473 1127.61 816.898C1126.07 845.958 1126.81 898.264 1129.41 943.437C1131.84 985.788 1132.78 1024.62 1131.5 1029.73C1130.21 1034.83 1125.7 1040.86 1121.48 1043.12C1115.01 1046.58 1112.15 1045.66 1103.47 1037.36C1095.7 1029.93 1091.11 1028.14 1084.84 1030.13L1076.53 1032.76L1085.42 1039.46C1093.81 1045.78 1094.24 1047.95 1093.18 1078.51C1092.42 1100.32 1094.52 1123.45 1099.61 1149.45C1107.48 1189.67 1108.81 1210.22 1104.82 1230.14C1102.57 1241.36 1099.11 1244.16 1079.85 1250.33C1073.72 1252.29 1074.48 1253.47 1085.37 1258.9L1097.98 1265.19L1097.33 1293.39L1096.67 1321.59L1108.64 1319.65C1127.88 1316.53 1134.36 1325.84 1131.56 1352.57C1129.59 1371.37 1123.44 1384.78 1085.08 1453.82C1030.37 1552.31 997.969 1604.11 985.207 1613.49C970.595 1624.23 952.745 1619.52 931.667 1599.34C922.276 1590.35 914.102 1583 913.503 1583C912.904 1583 913.38 1587.82 914.56 1593.71C919.522 1618.5 893.335 1666.69 869.498 1676.63C852.391 1683.77 806.109 1683.79 765.795 1676.67C743.084 1672.65 726.298 1666.59 700.489 1653.06C663.113 1633.47 571.946 1602.01 524.169 1592.21C507.984 1588.9 474.052 1584.83 448.764 1583.17C396.729 1579.76 186.035 1584.39 109.136 1590.63C39.0281 1596.32 13.6278 1592.02 4.61194 1572.91C-0.876587 1561.28 -0.96521 1433.73 4.49524 1404.8L4.48938 1404.81ZM32.1936 1437.38C42.7842 1434.18 55.2703 1433.03 63.8953 1434.46C77.2478 1436.68 158.42 1464.03 214.469 1485.2C275.617 1508.28 374.322 1513.63 594.054 1505.76C668.908 1503.08 754.153 1500.77 783.49 1500.61C834.28 1500.35 837.856 1500.82 858.42 1510.44C870.297 1516 880.565 1520.54 881.236 1520.54C881.907 1520.54 881.504 1512.5 880.339 1502.68C879.122 1492.41 880.143 1479 882.741 1471.13C887.657 1456.25 906.694 1432.36 913.634 1432.36C916.011 1432.36 929.924 1426.63 944.553 1419.63C978.26 1403.5 1036.78 1348.8 1046.01 1324.8C1049.67 1315.29 1056.14 1306.92 1062.71 1303.2C1068.61 1299.86 1075.16 1293.91 1077.26 1289.98C1080.77 1283.44 1078.98 1282.33 1055.91 1276.77C1042.06 1273.43 1027.49 1270.7 1023.54 1270.7C1013.36 1270.7 1005.04 1259.98 1003.59 1244.98L1002.35 1232.12L1018.75 1233.37C1035.23 1234.63 1054.19 1230.49 1077.36 1220.55L1089.84 1215.2L1087.51 1184.93C1086.23 1168.28 1082.47 1146.68 1079.14 1136.94C1074.61 1123.64 1073.56 1111.15 1074.95 1086.79C1076.94 1051.99 1076.11 1050.25 1057.46 1050.25C1052.7 1050.25 1044.49 1048.61 1039.22 1046.61C1030.89 1043.45 1030.18 1041.97 1033.76 1035.28C1040.73 1022.28 1061.52 1016.12 1091.85 1018.06C1113.66 1019.46 1119.26 1018.73 1120.99 1014.24C1122.16 1011.19 1120.15 983.469 1116.52 952.639C1110.15 898.502 1110.24 839.455 1116.76 793.928C1118.42 782.325 1117.33 775.722 1112.57 768.461L1106.14 758.66L1100.22 774.516C1093.71 791.981 1074.3 809.716 1079.45 793.496C1081.72 786.36 1078.91 782.16 1061.56 766.707C1050.23 756.627 1040.97 745.991 1040.97 743.071C1040.97 737.169 1055.33 730.597 1068.22 730.597C1076.29 730.597 1076.76 728.829 1081.02 681.914C1083.45 655.139 1086.42 627.602 1087.62 620.723L1089.79 608.214L1072.2 610.622C1060.94 612.164 1052.77 611.51 1049.51 608.806C1045.67 605.619 1040.79 605.667 1029.65 609.001C1015.31 613.292 1014.03 612.917 985.515 596.1C969.364 586.573 956.686 576.976 957.343 574.775C959.897 566.215 994.449 553.023 1022.05 550.068C1092.43 542.534 1103.63 540.878 1106.99 537.521C1110.9 533.617 1121.8 448.725 1121.86 421.782L1121.89 405.065L1099.59 400.464C1073.57 395.096 1071.76 388.703 1092.49 375.403C1118.45 358.746 1119.93 357.126 1119.03 346.213C1113.34 276.575 1097.45 193.754 1086.09 174.541C1085.08 172.84 1080.36 181.107 1075.59 192.913C1070.82 204.718 1062.41 218.297 1056.9 223.089C1048.08 230.76 1044.22 231.585 1024.61 229.997C996.474 227.718 935.942 207.549 880.075 181.835C835.858 161.483 762.544 136.127 718.177 125.84C653.521 110.848 598.377 105.315 493.942 103.338C355.1 100.712 311.02 106.284 211.511 139.044C151.555 158.781 124.381 164.656 92.7563 164.72C67.4097 164.772 66.1658 165.159 69.7671 171.881C75.6022 182.772 74.3867 198.282 64.7842 235.456C55.5176 271.331 49.2507 332.736 54.1362 339.788C57.6498 344.859 108.015 361.022 136.933 366.357C148.515 368.494 162.917 372.787 168.936 375.896C174.956 379.005 184.514 381.601 190.178 381.665L200.476 381.781L190.654 390.422C181.537 398.443 147.581 407.268 125.832 407.268C121.525 407.268 114.544 410.973 110.321 415.502C104.481 421.763 98.4968 423.744 85.3488 423.769C69.0911 423.8 68.1179 424.351 69.0784 432.987C69.6403 438.039 71.6509 493.886 73.5465 557.092C77.0223 672.992 76.7986 676.308 64.0695 697.526C57.9666 707.699 59.1764 729.524 66.833 747.384C69.5005 753.605 71.5095 774.144 71.5922 796.033L71.7352 833.915L88.4553 849.309C97.6514 857.776 108.411 866.61 112.364 868.941C119.149 872.941 119.22 873.783 113.636 883.947C107.808 894.555 107.874 894.773 118.068 898.616C135.65 905.245 135.076 916.105 114.586 964.455C97.1361 1005.63 83.9982 1045.91 73.6332 1090C71.1063 1100.75 65.639 1112.71 61.484 1116.58C54.1541 1123.4 54.1292 1123.83 60.6432 1131.02C68.6783 1139.89 78.287 1140.33 99.6046 1132.82C111.608 1128.59 118.193 1128.13 126.365 1130.98C132.326 1133.06 141.362 1134.75 146.447 1134.75C157.384 1134.75 185.846 1150.6 188.822 1158.35C190.996 1164.01 187.907 1165.51 165.531 1169.66C158.451 1170.98 140.866 1176.85 126.454 1182.71C112.042 1188.57 91.1741 1194.43 80.0811 1195.74L59.9115 1198.1L57.7662 1238.99C56.1394 1270 52.3905 1291.43 42.2523 1327.65C20.5533 1405.17 15.1389 1426.39 14.9247 1434.76C14.7267 1442.49 15.1085 1442.55 32.1941 1437.38L32.1936 1437.38ZM1058.45 814.63C1064.28 810.059 1064.41 810.189 1059.84 816.017C1055.03 822.137 1052.01 824.083 1052.01 821.059C1052.01 820.297 1054.91 817.403 1058.45 814.63L1058.45 814.63ZM29.2134 1545.57C31.9719 1546.48 33.3514 1545.11 32.4318 1542.35C31.5466 1539.7 28.65 1536.8 25.9948 1535.92C23.2361 1535 21.8567 1536.38 22.7762 1539.14C23.6614 1541.79 26.558 1544.68 29.2134 1545.57ZM56.4839 1030.04C60.3932 1063.86 61.6116 1068.36 63.947 1057.59C68.6786 1035.8 88.926 976.151 99.921 951.619C105.666 938.8 110.367 927.698 110.367 926.947C110.367 926.197 107.057 923.812 103.01 921.649C97.7321 918.828 93.4698 918.884 87.923 921.849C81.3907 925.341 78.5586 924.419 69.6558 915.9L59.1202 905.817L55.8448 914.652C54.0436 919.511 51.5234 925.966 50.2449 928.998C47.5477 935.391 49.8468 972.623 56.4836 1030.04L56.4839 1030.04ZM84.6038 59.2544C84.6113 68.918 82.2192 82.5583 79.2878 89.5656C73.3895 103.666 73.1254 103.499 93.8132 98.7497C101.906 96.8919 141.632 90.8133 182.092 85.2416C249.745 75.9254 263.936 75.174 358.65 75.8919C484.636 76.8468 600.143 82.2787 649.237 89.5571C719.324 99.9482 783.175 118.833 891.996 161.353C942.472 181.074 955.055 184.584 980.397 185.999C1004.66 187.355 1010.84 186.573 1014.94 181.631C1021.94 173.218 1018.55 171.5 1005.02 176.6C995.269 180.276 990.738 179.826 975.972 173.713C953.725 164.503 936.943 142.98 927.04 110.95C917.594 80.4015 917.519 56.4666 926.812 38.2591L934.04 24.0971L879.913 26.6412C850.144 28.0405 796.392 31.5304 760.464 34.3962C594.339 47.6486 409.469 44.6455 187.66 25.0907C142.174 21.0808 97.0935 17.7999 87.4799 17.7999L70.0017 17.7999L77.2904 29.741C81.8655 37.2361 84.5842 48.2229 84.593 59.2519L84.6038 59.2544ZM80.9393 1523.98C80.9393 1533.06 78.2174 1547.61 74.8907 1556.31C71.5641 1565.01 69.495 1572.66 70.2928 1573.3C71.0907 1573.94 87.4683 1573.03 106.688 1571.26C125.908 1569.5 219.429 1567.69 314.505 1567.25L487.385 1566.46L533.736 1576.47C593.456 1589.37 632.948 1603.29 698.887 1634.68C746.688 1657.43 785.76 1670.29 790.842 1664.95C791.855 1663.89 788.585 1660.31 783.576 1656.99C764.025 1644.05 748.94 1628.34 742.532 1614.25C735.189 1598.11 733.343 1561.13 739.322 1549.98C747.069 1535.51 788.125 1529.83 808.564 1540.39C830.704 1551.83 838.576 1576.17 820.942 1578.68C810.506 1580.17 812.354 1588.07 823.522 1589.7C840.743 1592.23 849.409 1572.47 842.431 1546.58C834.311 1516.46 817.515 1514.43 643.716 1522.54C544.496 1527.17 482.099 1528.14 404.633 1526.25C346.976 1524.84 296.491 1524.02 292.445 1524.43C288.4 1524.83 269.363 1525.14 250.145 1525.1C221.042 1525.05 203.808 1522.21 147.031 1508.09C109.536 1498.77 76.7511 1491.14 74.176 1491.14C70.6958 1491.14 70.9637 1493.24 75.2183 1499.3C78.3676 1503.79 80.9443 1514.9 80.9443 1523.98L80.9393 1523.98ZM747.007 1597.16C753.586 1604.22 757.812 1605.22 777.061 1604.28C789.38 1603.69 800.047 1601.42 800.764 1599.24C801.482 1597.07 797.968 1590.87 792.956 1585.46C785.491 1577.42 780.614 1575.64 766.01 1575.64C750.179 1575.64 739.35 1580.14 739.35 1586.71C739.35 1587.94 742.795 1592.65 747.006 1597.16L747.007 1597.16ZM935.211 1506.6C962.265 1505.1 976.053 1514.35 988.801 1542.55C994.227 1554.56 999.887 1564.43 1001.38 1564.5C1004.92 1564.66 1015.13 1548.31 1055.46 1477.84C1105.54 1390.37 1123.2 1354.08 1120.23 1344.74C1115.29 1329.2 1103.65 1336.1 1054.46 1383.7C1000.76 1435.67 968.676 1463.3 946.909 1476.33C928.824 1487.15 915.905 1498.56 915.9 1503.72C915.897 1506.17 923.214 1507.26 935.211 1506.6L935.211 1506.6ZM937.969 1559.1C940.088 1560.41 941.255 1557.78 940.728 1552.89C939.947 1545.65 941.489 1544.41 951.303 1544.42C958.995 1544.42 962.208 1542.91 961.025 1539.83C958.567 1533.43 947.008 1534.08 940.077 1541C933.502 1547.57 932.548 1555.76 937.969 1559.11L937.969 1559.1ZM954.94 121.119C964.297 131.447 969.455 129.645 981.482 111.843C994.957 91.8991 991.915 87.5959 964.344 87.5959L944.367 87.5959L946.531 100.911C947.72 108.235 951.504 117.328 954.938 121.119L954.94 121.119ZM993.38 122.644C995.531 123.971 1000.18 122.449 1003.7 119.262C1009.55 113.976 1010.65 114.006 1016.26 119.601C1024.94 128.273 1028.97 122.16 1022.35 110.351C1015.12 97.4295 1002.95 95.7286 995.342 106.575C988.443 116.414 988.082 119.373 993.379 122.644L993.38 122.644ZM1084.75 758.353C1089.63 755.34 1090.14 745.276 1085.41 745.276C1083.55 745.276 1079.28 746.329 1075.93 747.615C1070.53 749.682 1070.46 750.59 1075.27 755.399C1078.27 758.393 1082.54 759.722 1084.75 758.353Z" fill="#C7B19E"/>
<path d="M22.3534 1340.51C42.8192 1259.75 44.172 1251.79 43.2708 1217.43L42.3073 1180.7L66.2156 1178.07C91.4677 1175.29 119.657 1166.25 123.765 1159.61C126.157 1155.74 81.1188 1157.75 56.1521 1162.62C50.3727 1163.75 43.1152 1162.48 39.3323 1159.68C33.8408 1155.61 33.3492 1152.98 36.5178 1144.66C50.0303 1109.16 48.2388 1031.59 32.7675 982.277C21.137 945.21 25.0338 914.676 43.4913 898.255C48.9451 893.402 54.0555 892.104 60.9216 893.825C66.2646 895.164 76.3535 894.375 83.3417 892.072C101.016 886.245 98.2173 877.217 76.87 871.196C52.6833 864.372 50.5668 857.857 49.6993 787.547C49.2761 753.209 47.2059 724.459 44.7216 718.418C38.4106 703.071 39.5427 688.676 47.8938 678.071C64.005 657.612 66.0378 521.497 51.3322 447.759C47.5111 428.598 45.5747 411.731 47.0288 410.279C52.4158 404.898 99.8601 388.907 110.441 388.907C132.401 388.907 120.53 381.974 85.5281 374.358C65.8029 370.066 47.1823 365.174 44.1466 363.487C35.5308 358.697 37.7484 275.148 47.5682 234.593C59.0049 187.359 58.024 176.384 40.3722 154.078C20.8754 129.441 17.8219 120.471 17.7451 87.6264C17.6746 57.3579 21.4452 44.3645 35.7251 25.6633C50.3541 6.50573 73.3356 -2.0026 102.753 0.853122C448.77 34.4283 536.501 35.2626 891.762 8.34662C934.38 5.11763 976.998 3.35624 986.469 4.4324C1031.93 9.59836 1056.7 39.2518 1090.04 128.442C1112.95 189.728 1121.39 224.736 1127.35 283.234C1130.5 314.075 1134.05 346.304 1135.25 354.859C1137.25 369.141 1136.64 370.707 1127.82 374.057C1115.9 378.587 1115.29 385.235 1126.81 385.235C1135.23 385.235 1135.37 385.806 1133.89 415.546C1131.98 453.922 1129.92 460.364 1129.55 429.14C1129.22 401.999 1125.59 396.257 1108.74 396.257C1093.31 396.257 1086.48 388.4 1095.24 380.724C1098.78 377.63 1107.25 372.27 1114.08 368.814C1126.15 362.703 1126.42 362.062 1124.12 345.407C1122.82 335.989 1120.07 312.577 1118.01 293.38C1113.11 247.815 1087.65 146.336 1082.42 151.56C1081.39 152.585 1079.08 161.268 1077.29 170.855C1070.31 208.192 1054.77 227.246 1031.3 227.246C1006.02 227.246 940.822 205.053 869.778 172.267C831.786 154.734 756.852 129.923 713.608 120.559C591.605 94.1394 401.909 89.264 300.329 109.938C280.154 114.044 238.593 125.479 207.969 135.348C142.767 156.362 109.661 162.825 81.9065 159.964C62.5524 157.969 61.8887 158.192 64.1522 165.931C70.522 187.705 70.0343 198.2 61.1277 230.998C50.7203 269.322 43.9325 345.656 50.5676 349.752C52.6477 351.036 74.7025 357.179 99.5763 363.402C124.45 369.625 149.572 377.181 155.402 380.192C175.176 390.406 161.719 398.577 123.61 399.497C113.702 399.736 95.761 403.514 83.7399 407.892L61.8838 415.852L64.3083 430.855C65.6418 439.107 67.5718 497.842 68.597 561.379C70.4362 675.351 70.3527 677.091 62.3579 691.3C53.0046 707.923 53.8973 730.982 64.7765 753.771C70.3079 765.358 70.5958 769.79 66.8658 785.931C61.5374 808.989 61.2529 842.589 66.3062 852.021C68.4856 856.088 78.5308 861.506 90.1466 864.88C101.188 868.086 111.253 872.376 112.513 874.414C113.773 876.452 110.951 882.217 106.24 887.226C99.0028 894.922 98.5153 896.864 103.096 899.758C106.078 901.641 111.356 903.207 114.825 903.238C118.294 903.269 122.944 906.675 125.158 910.807C128.477 917.002 125.866 925.864 110.275 961.328C99.8748 984.981 87.1997 1019.22 82.1083 1037.4C71.0985 1076.73 65.2175 1088.69 68.5551 1064.96C71.0446 1047.26 93.022 979.86 106.499 948.596C117.996 921.925 116.053 916.159 95.5591 916.132C82.4224 916.115 79.2889 914.904 80.0697 910.146C81.2454 902.982 67.6899 898.574 58.9132 903.266C51.1993 907.39 44.1381 930.495 44.1781 951.485C44.1948 960.344 46.5437 985.256 49.3977 1006.85C52.8887 1033.25 53.896 1062.55 52.476 1096.38L50.3651 1146.67L94.1539 1144.28C125.866 1142.56 143.016 1143.26 156.335 1146.84C178.161 1152.7 180.834 1161.18 161.852 1164.34C154.771 1165.52 137.589 1171.06 123.669 1176.65C109.749 1182.25 92.3688 1187.62 85.0466 1188.59C53.3663 1192.79 55.1813 1190.83 55.1813 1220.86C55.1813 1254.64 48.5045 1290.03 29.5632 1356.64C14.3193 1410.25 6.95056 1443.43 9.40796 1447.4C10.1864 1448.66 19.5443 1446.74 30.204 1443.14C41.2478 1439.4 54.3478 1437.46 60.6599 1438.63C74.2913 1441.14 177.207 1476.09 214.129 1490.74C229.021 1496.65 259.352 1504.3 281.533 1507.75C326.284 1514.7 334.705 1517.65 307.06 1516.68C296.992 1516.32 281.415 1517.77 272.444 1519.89C252.458 1524.62 211.125 1520.28 174.728 1509.62C160.567 1505.47 130.379 1497.89 107.643 1492.77C62.6355 1482.64 44.6396 1483.32 32.3044 1495.65C24.4431 1503.5 19.8978 1502.14 23.413 1492.99C24.646 1489.78 31.7819 1484.6 39.2704 1481.47C55.9282 1474.52 76.3063 1476.55 136.501 1491.16C177.035 1501 224.671 1508.83 220.707 1505C219.696 1504.03 188.247 1491.87 150.821 1477.99C92.5283 1456.37 79.308 1452.74 58.6102 1452.67C38.2997 1452.6 31.9963 1454.2 19.0687 1462.74L3.68933 1472.9V1505.95C3.68933 1546.9 12.2985 1569.14 30.6387 1575.55C40.8485 1579.12 43.0914 1578.68 48.54 1571.99C51.9661 1567.78 58.2275 1555.11 62.4546 1543.82C69.514 1524.98 69.6738 1522.6 64.4167 1514.58C61.269 1509.78 55.3235 1505.86 51.2046 1505.86C47.0857 1505.86 44.7386 1504.2 45.9891 1502.18C47.2396 1500.16 53.0721 1498.51 58.9508 1498.51C78.5261 1498.51 82.629 1520.62 69.5389 1555.57C65.2952 1566.9 62.5703 1576.92 63.4834 1577.83C64.3966 1578.74 88.9729 1577.68 118.098 1575.46C147.222 1573.25 239.743 1571.15 323.702 1570.8C469.156 1570.18 478.432 1570.55 520.49 1578.6C580.208 1590.02 630.609 1607.42 700.503 1640.75C758.84 1668.56 759.313 1668.71 794.869 1670.42C840.446 1672.62 854.059 1669.92 870.581 1655.43C905.111 1625.15 905.752 1585.38 872.44 1540.19C862.253 1526.37 858.654 1524.35 834.503 1518.86C801.702 1511.41 766.61 1511.35 582.232 1518.46C502.822 1521.52 422.008 1522.78 396.472 1521.34L351.281 1518.81L382.547 1516.37C399.743 1515.03 445.262 1513.73 483.7 1513.49C522.139 1513.24 587.657 1511.45 629.299 1509.51C670.941 1507.56 733.839 1505.59 769.074 1505.13L833.14 1504.29L857.892 1515.87C886.781 1529.38 888.684 1528.21 887.003 1498.05C886.156 1482.87 887.813 1473.55 893.25 1462.9C902.513 1444.77 905.676 1442.19 930.623 1432.4C941.745 1428.03 959.122 1419.57 969.237 1413.6L987.629 1402.75L972.136 1417.02C963.441 1425.02 947 1434.8 934.664 1439.29C908.813 1448.71 895.587 1462.56 891.954 1484.04C888.61 1503.8 894.764 1510.79 902.447 1495.95C905.507 1490.04 917.649 1478.86 929.429 1471.1C941.208 1463.34 959.121 1450.25 969.236 1442.01C994.294 1421.58 1082.78 1336.2 1085.29 1330.03C1086.44 1327.19 1094.33 1324.53 1103.65 1323.84C1123.48 1322.36 1132.93 1329.41 1132.91 1345.68L1132.89 1357.05L1125.6 1345.11C1112.64 1323.87 1104.9 1327.48 1050.69 1380.1C994.622 1434.52 971.734 1454.13 940.388 1474.62C918.568 1488.88 902.206 1509.97 901.482 1524.77C901.223 1530.07 913.205 1550.73 932.769 1578.71C940.014 1589.07 959.392 1601.35 968.535 1601.37C972.196 1601.38 984.137 1592.93 995.07 1582.6L1014.95 1563.83L1003.78 1584.42C992.02 1606.11 981.347 1616.08 969.89 1616.08C955.839 1616.08 936.936 1603.38 922.432 1584.19C914.226 1573.33 906.887 1565.07 906.125 1565.83C905.363 1566.59 906.645 1575.46 908.974 1585.54C914.072 1607.6 907.544 1631.71 890.035 1655.49C872.813 1678.89 858.976 1683.6 814.989 1681.06C770.583 1678.5 737.293 1668.93 697.041 1647.16C666.318 1630.54 587.542 1603.35 532.483 1590.35C480.988 1578.19 416.159 1575.36 281.389 1579.39C214.627 1581.38 138.487 1584.76 112.188 1586.9C49.4822 1591.99 23.9517 1589.13 10.3065 1575.5L0.000244141 1565.2L0.232544 1496.03L0.464722 1426.86L22.3458 1340.51L22.3534 1340.51ZM36.7882 124.349C43.1959 136.309 64.4244 143.466 99.5454 145.509C130.503 147.308 132.172 146.957 198.122 124.727C235.018 112.291 277.954 99.6497 293.532 96.6336C340.021 87.637 433.541 82.8791 513.127 85.4613C670.975 90.5831 728.35 103.1 899.886 169.823C1027.76 219.566 1041.37 221.293 1055.77 189.597C1069.7 158.949 1060.68 82.7375 1039.31 50.4832C1028.96 34.8645 1003.96 21.4768 985.139 21.4768C974.194 21.4768 969.264 24.4951 954.56 40.1976L937.028 58.9185L938.851 81.6038C940.88 106.854 954.662 138.089 970.066 152.348C984.143 165.379 1002.32 164.336 1009.71 150.072C1016.88 136.223 1018.9 136.191 1018.9 149.929C1018.9 162.082 1006.76 175.791 995.99 175.791C985.123 175.791 961.79 162.387 951.6 150.291C939.1 135.451 926.664 101.633 924.248 75.9082C922.556 57.8933 923.621 52.7434 931.991 38.4773C937.329 29.3789 940.446 21.1962 938.917 20.293C935.939 18.5341 802.929 26.1025 730.155 32.1717C590.699 43.8021 405.803 39.7374 179.23 20.0602C61.9922 9.87835 48.7255 10.9522 70.8118 28.8363C77.863 34.5461 79.0604 38.9835 78.9021 58.8178C78.7852 73.4805 76.3672 86.5193 72.3706 94.0401C64.6677 108.535 64.3834 108.486 110.354 100.581C176.997 89.1215 318.189 75.9851 312.353 81.7856C311.51 82.6239 293.44 85.2057 272.198 87.5227C231.032 92.0131 86.7955 115.181 67.5933 120.39C48.0447 125.69 46.4457 120.779 58.994 93.9936C72.2727 65.6485 72.7393 45.6068 60.3109 37.4104C53.543 32.9475 51.556 33.1268 44.5999 38.8288C30.6528 50.2611 25.767 103.771 36.791 124.347L36.7882 124.349ZM983.145 569.588C994.564 560.122 1008.71 557.736 1030.28 561.642C1048.4 564.924 1053.66 564.578 1063.59 559.451C1071.96 555.129 1080.45 553.961 1092.85 555.428L1110.32 557.495L1113.99 540.247C1116 530.761 1118.82 510.975 1120.25 496.28C1122.77 470.373 1129.4 455.087 1129.08 475.937C1128.77 495.436 1119.17 572.858 1116.75 575.27C1115.43 576.597 1108.88 575.713 1102.22 573.304C1086.67 567.69 1069.4 567.703 1063.76 573.335C1056.64 580.454 1058.57 582.238 1071.74 580.702C1083.2 579.365 1104.21 586.891 1108.54 593.886C1109.55 595.519 1107.02 611.651 1102.93 629.736C1098.83 647.821 1093.51 679.964 1091.09 701.168C1087.27 734.779 1085.78 739.886 1079.47 741.022C1067.32 743.208 1064.9 748.226 1072.14 756.222C1081.86 766.94 1092.45 765.966 1092.45 754.357C1092.45 740.439 1102.97 738.433 1113.26 750.387C1123.44 762.204 1124.85 771.154 1115.15 762.39C1104.98 753.197 1096.13 754.642 1096.13 765.494C1096.13 778.46 1085.6 777.429 1066.07 762.552C1045.93 747.204 1045.76 740.875 1065.39 736.997C1083.33 733.453 1084.97 729.654 1085.05 691.572C1085.07 677.186 1087.61 651.033 1090.68 633.454C1093.75 615.876 1095.3 599.952 1094.14 598.068C1092.97 596.184 1081.77 594.655 1069.25 594.668C1056.72 594.682 1033.23 592.758 1017.05 590.393C980.746 585.088 971.379 579.341 983.145 569.586L983.145 569.588ZM1017.58 1369.69C1030.9 1356.67 1044.97 1339.07 1048.83 1330.58C1052.69 1322.1 1060.8 1311.64 1066.85 1307.33C1078.93 1298.74 1090.35 1279.88 1086.87 1274.26C1085.66 1272.3 1077.73 1270.53 1069.25 1270.34C1060.77 1270.14 1044.73 1268.08 1033.6 1265.74C1016.99 1262.26 1013.16 1260.03 1012.2 1253.24C1010.89 1244.08 1012.32 1243.63 1038.62 1244.87C1056.05 1245.69 1083.7 1236.84 1089.64 1228.54C1095.6 1220.22 1092.56 1160.58 1085.1 1139.38C1077.36 1117.39 1075.42 1082.54 1081.1 1067.63C1085.83 1055.2 1081.2 1049.98 1060.87 1044.83C1040.3 1039.61 1036.3 1033.46 1050.1 1028.22C1063.09 1023.28 1070.39 1023.55 1070.39 1028.98C1070.39 1031.43 1074.6 1036.8 1079.74 1040.92C1088.71 1048.09 1089.16 1050.32 1090.47 1094.33C1091.23 1119.59 1094.41 1150.18 1097.54 1162.3C1103.6 1185.77 1104.96 1211.01 1101.18 1229.86C1099.46 1238.48 1096.43 1241.9 1089.23 1243.4C1070.69 1247.26 1058.27 1259.67 1072.94 1259.67C1085.82 1259.67 1096.13 1270.25 1096.13 1283.46C1096.13 1299.83 1092.91 1307.43 1085.97 1307.43C1077.11 1307.43 1055.67 1325.41 1055.67 1332.85C1055.67 1336.51 1052.39 1343.68 1048.38 1348.78C1038.85 1360.88 997.022 1397.04 994.948 1394.97C994.065 1394.09 1004.25 1382.71 1017.58 1369.69L1017.58 1369.69ZM1038.14 1519.72C1048.57 1502.09 1057.69 1488.26 1058.41 1488.98C1059.97 1490.53 1023.05 1553.6 1020.58 1553.6C1018.06 1553.6 1017.75 1554.21 1038.14 1519.72H1038.14ZM1108.96 1028.17C1119.89 1037.23 1125.56 1029.83 1125.56 1006.49C1125.56 994.423 1127.21 983.527 1129.24 982.277C1131.54 980.854 1132.92 988.785 1132.92 1003.54C1132.92 1021.67 1131.37 1028.46 1126.19 1033.15C1117.69 1040.83 1108.61 1040.95 1105.72 1033.42C1102.27 1024.44 1103.02 1023.24 1108.96 1028.17L1108.96 1028.17ZM1117.69 862.868C1119.6 865.899 1122.08 889.047 1123.2 914.307C1124.51 943.688 1124.11 954.939 1122.1 945.538C1117.17 922.477 1113.65 856.451 1117.69 862.87V862.868Z" fill="#A48B77"/>
</svg>
