<svg width="376" height="546" viewBox="0 0 376 546" fill="#fffff" xmlns="http://www.w3.org/2000/svg">
<path d="M7.38917 435.147C14.1543 408.933 14.6015 406.348 14.3036 395.196L13.9851 383.273L21.8882 382.418C30.2355 381.516 39.5539 378.58 40.9118 376.425C41.7024 375.17 26.8146 375.822 18.5617 377.403C16.6512 377.769 14.2522 377.356 13.0017 376.446C11.1865 375.126 11.0239 374.274 12.0713 371.572C16.538 360.048 15.9458 334.867 10.8316 318.861C6.98709 306.828 8.27523 296.916 14.3765 291.586C16.1793 290.011 17.8686 289.589 20.1383 290.148C21.9044 290.583 25.2394 290.326 27.5494 289.579C33.3917 287.687 32.4667 284.757 25.4101 282.802C17.415 280.587 16.7153 278.472 16.4286 255.649C16.2887 244.502 15.6044 235.169 14.7832 233.208C12.6971 228.226 13.0713 223.553 15.8318 220.111C21.1575 213.47 21.8295 169.285 16.9684 145.349C15.7053 139.129 15.0652 133.654 15.5459 133.182C17.3266 131.435 33.0097 126.244 36.5073 126.244C43.7663 126.244 39.8425 123.994 28.2721 121.522C21.7518 120.128 15.5966 118.54 14.5931 117.993C11.7451 116.438 12.4781 89.3168 15.7242 76.1518C19.5046 60.8192 19.1804 57.2564 13.3454 50.0156C6.9006 42.0181 5.89124 39.1063 5.86588 28.4445C5.84255 18.619 7.08896 14.4011 11.8093 8.33047C16.6451 2.11166 24.2418 -0.650267 33.966 0.276739C148.345 11.1757 177.345 11.4465 294.78 2.70923C308.868 1.66106 322.956 1.08929 326.086 1.43862C341.116 3.11556 349.303 12.7415 360.323 41.6939C367.896 61.5881 370.685 72.9523 372.657 91.9415C373.697 101.953 374.871 112.415 375.267 115.192C375.929 119.828 375.728 120.337 372.813 121.424C368.87 122.894 368.67 125.052 372.477 125.052C375.262 125.052 375.306 125.238 374.817 134.892C374.186 147.349 373.506 149.44 373.382 139.305C373.274 130.494 372.073 128.63 366.504 128.63C361.402 128.63 359.145 126.08 362.043 123.588C363.211 122.584 366.012 120.844 368.268 119.722C372.258 117.738 372.349 117.53 371.589 112.124C371.159 109.067 370.249 101.467 369.568 95.2351C367.95 80.4441 359.531 47.5024 357.802 49.1984C357.463 49.5309 356.701 52.3495 356.108 55.4618C353.8 67.5817 348.663 73.767 340.906 73.767C332.55 73.767 310.997 66.5627 287.513 55.9201C274.954 50.2287 250.184 42.1747 235.89 39.135C195.561 30.5588 132.855 28.9761 99.2766 35.687C92.6076 37.0201 78.8691 40.732 68.7461 43.9358C47.1929 50.757 36.2494 52.8552 27.075 51.9264C20.6773 51.2787 20.4579 51.3512 21.2062 53.8633C23.3117 60.9316 23.1505 64.3381 20.2064 74.9848C16.7661 87.4253 14.5223 112.205 16.7156 113.534C17.4032 113.951 24.6937 115.945 32.9159 117.965C41.1382 119.985 49.4425 122.438 51.3697 123.415C57.906 126.731 53.4576 129.384 40.8604 129.682C37.5853 129.76 31.6547 130.986 27.681 132.407L20.4563 134.991L21.2578 139.861C21.6986 142.54 22.3365 161.606 22.6754 182.231C23.2834 219.228 23.2557 219.793 20.613 224.405C17.5212 229.802 17.8163 237.287 21.4125 244.684C23.241 248.445 23.3362 249.884 22.1032 255.124C20.3418 262.609 20.2478 273.516 21.9181 276.577C22.6386 277.898 25.9591 279.657 29.7988 280.752C33.4485 281.792 36.7758 283.185 37.1923 283.847C37.6088 284.508 36.676 286.38 35.1188 288.006C32.7263 290.504 32.5652 291.134 34.0794 292.074C35.065 292.685 36.8097 293.193 37.9565 293.203C39.1033 293.213 40.6402 294.319 41.3721 295.66C42.4693 297.671 41.6064 300.548 36.4523 312.06C33.0146 319.738 28.8247 330.851 27.1417 336.755C23.5023 349.521 21.5583 353.402 22.6615 345.7C23.4845 339.955 30.7493 318.076 35.2044 307.927C39.0047 299.27 38.3624 297.398 31.588 297.389C27.2455 297.383 26.2097 296.99 26.4678 295.446C26.8564 293.12 22.3756 291.689 19.4744 293.212C16.9244 294.551 14.5903 302.051 14.6035 308.865C14.6091 311.741 15.3855 319.828 16.3289 326.836C17.4829 335.408 17.8159 344.919 17.3465 355.901L16.6487 372.225L31.1235 371.45C41.6063 370.889 47.2754 371.118 51.678 372.28C58.8926 374.184 59.7763 376.936 53.5018 377.961C51.1612 378.343 45.4813 380.142 40.8799 381.958C36.2786 383.774 30.5334 385.517 28.113 385.833C17.6408 387.197 18.2407 386.56 18.2407 396.307C18.2407 407.274 16.0337 418.761 9.77246 440.385C4.73345 457.787 2.29762 468.558 3.10993 469.847C3.36728 470.256 6.46061 469.632 9.98424 468.462C13.6349 467.25 17.9652 466.621 20.0517 466.999C24.5577 467.815 58.5775 479.16 70.7822 483.915C75.7049 485.833 85.7313 488.318 93.0634 489.437C107.856 491.694 110.64 492.65 101.502 492.334C98.1736 492.219 93.0245 492.689 90.0589 493.378C83.4525 494.913 69.7894 493.503 57.7581 490.043C53.0768 488.697 43.098 486.236 35.5825 484.574C20.7048 481.285 14.7561 481.507 10.6786 485.507C8.07993 488.056 6.57747 487.616 7.73943 484.646C8.14702 483.604 10.5058 481.921 12.9812 480.907C18.4876 478.65 25.2238 479.309 45.1217 484.052C58.5205 487.245 74.2671 489.787 72.9569 488.545C72.6225 488.227 62.2269 484.281 49.8552 479.776C30.5861 472.758 26.216 471.58 19.3742 471.556C12.6604 471.533 10.5767 472.054 6.30338 474.825L1.2196 478.122V488.852C1.2196 502.146 4.06543 509.364 10.1279 511.446C13.5029 512.605 14.2443 512.46 16.0454 510.289C17.1779 508.924 19.2477 504.81 20.645 501.147C22.9786 495.029 23.0314 494.255 21.2936 491.654C20.2531 490.096 18.2877 488.822 16.9262 488.822C15.5647 488.822 14.7888 488.285 15.2022 487.629C15.6155 486.973 17.5435 486.436 19.4868 486.436C25.9576 486.436 27.3138 493.616 22.9868 504.96C21.584 508.638 20.6832 511.889 20.9851 512.185C21.2869 512.482 29.4108 512.136 39.0383 511.417C48.6657 510.698 79.2494 510.017 107.003 509.902C155.084 509.703 158.15 509.823 172.053 512.434C191.793 516.142 208.454 521.791 231.558 532.61C250.841 541.639 250.998 541.687 262.751 542.242C277.817 542.954 282.317 542.079 287.778 537.375C299.193 527.545 299.404 514.636 288.393 499.967C285.026 495.48 283.836 494.823 275.853 493.042C265.01 490.623 253.41 490.605 192.462 492.913C166.213 493.907 139.499 494.314 131.058 493.849L116.119 493.026L126.455 492.235C132.139 491.8 147.185 491.379 159.892 491.299C172.598 491.22 194.255 490.638 208.021 490.007C221.786 489.375 242.577 488.736 254.225 488.585L275.402 488.312L283.584 492.071C293.134 496.457 293.763 496.079 293.207 486.289C292.927 481.36 293.475 478.334 295.272 474.878C298.334 468.991 299.379 468.153 307.626 464.975C311.302 463.558 317.046 460.813 320.39 458.875L326.47 455.35L321.348 459.983C318.474 462.583 313.039 465.755 308.962 467.214C300.416 470.27 296.045 474.768 294.843 481.738C293.738 488.156 295.772 490.424 298.312 485.607C299.324 483.688 303.337 480.058 307.231 477.54C311.125 475.022 317.046 470.772 320.39 468.095C328.673 461.464 357.922 433.749 358.751 431.746C359.132 430.825 361.74 429.961 364.821 429.735C371.377 429.256 374.499 431.545 374.492 436.826L374.488 440.517L372.078 436.641C367.792 429.745 365.235 430.918 347.315 447.999C328.781 465.665 321.216 472.032 310.854 478.681C303.641 483.31 298.233 490.157 297.993 494.963C297.907 496.682 301.868 503.387 308.335 512.472C310.73 515.836 317.136 519.821 320.158 519.826C321.368 519.829 325.315 517.088 328.929 513.735L335.5 507.639L331.809 514.323C327.921 521.365 324.393 524.602 320.606 524.602C315.961 524.602 309.713 520.478 304.918 514.249C302.206 510.724 299.78 508.043 299.528 508.29C299.276 508.537 299.7 511.416 300.47 514.687C302.155 521.849 299.997 529.676 294.209 537.396C288.516 544.99 283.942 546.52 269.402 545.695C254.723 544.863 243.719 541.757 230.413 534.69C220.257 529.297 194.217 520.469 176.017 516.248C158.995 512.301 137.565 511.382 93.0159 512.691C70.9471 513.339 45.7783 514.436 37.0847 515.129C16.3568 516.781 7.91748 515.853 3.40698 511.429L0.000125248 508.087L0.0769253 485.632L0.153689 463.177L7.38665 435.149L7.38917 435.147ZM12.1607 40.3653C14.2789 44.2476 21.2961 46.5708 32.9057 47.234C43.139 47.8181 43.6905 47.704 65.4909 40.488C77.6874 36.451 91.8803 32.3475 97.0296 31.3684C112.397 28.448 143.311 26.9035 169.619 27.7417C221.797 29.4043 240.763 33.4674 297.466 55.1266C339.736 71.274 344.234 71.8347 348.995 61.5456C353.599 51.5968 350.618 26.8575 343.554 16.3874C340.134 11.3173 331.869 6.97148 325.647 6.97148C322.029 6.97148 320.399 7.95126 315.538 13.0485L309.743 19.1256L310.346 26.4895C311.017 34.6862 315.572 44.8254 320.664 49.454C325.317 53.6843 331.326 53.3454 333.767 48.7152C336.137 44.2195 336.807 44.2093 336.807 48.6688C336.807 52.6138 332.793 57.0639 329.234 57.0639C325.641 57.0639 317.929 52.7129 314.56 48.7862C310.428 43.9691 306.317 32.9912 305.519 24.6407C304.959 18.7928 305.311 17.121 308.078 12.4901C309.843 9.5366 310.873 6.8804 310.368 6.58719C309.383 6.01623 265.416 8.47303 241.359 10.4432C195.261 14.2186 134.142 12.8991 59.2461 6.51162C20.4921 3.20645 16.1067 3.55504 23.4075 9.36046C25.7384 11.2139 26.1342 12.6544 26.0819 19.0929C26.0432 23.8526 25.2439 28.0852 23.9228 30.5265C21.3766 35.2318 21.2826 35.2159 36.4786 32.6499C58.5079 28.9299 105.18 24.6656 103.251 26.5486C102.973 26.8207 96.9993 27.6588 89.9775 28.4109C76.3699 29.8685 28.6911 37.3893 22.3436 39.0801C15.8817 40.8004 15.3531 39.2064 19.5011 30.5114C23.8905 21.3102 24.0447 14.8044 19.9364 12.1437C17.6992 10.695 17.0424 10.7532 14.7429 12.6042C10.1326 16.3152 8.51756 33.6852 12.1616 40.3646L12.1607 40.3653ZM324.988 184.896C328.762 181.823 333.44 181.049 340.567 182.317C346.558 183.382 348.298 183.27 351.579 181.605C354.345 180.202 357.152 179.823 361.252 180.3L367.027 180.971L368.239 175.372C368.905 172.292 369.836 165.869 370.308 161.099C371.141 152.689 373.334 147.727 373.226 154.495C373.126 160.825 369.952 185.957 369.153 186.74C368.714 187.171 366.551 186.884 364.347 186.102C359.209 184.28 353.5 184.284 351.636 186.112C349.28 188.423 349.919 189.002 354.272 188.504C358.063 188.07 365.006 190.513 366.437 192.784C366.771 193.313 365.936 198.55 364.582 204.421C363.229 210.292 361.469 220.726 360.671 227.609C359.407 238.519 358.915 240.177 356.827 240.546C352.811 241.256 352.013 242.884 354.407 245.48C357.617 248.959 361.121 248.643 361.121 244.874C361.121 240.356 364.597 239.705 368 243.586C371.363 247.422 371.829 250.327 368.624 247.482C365.263 244.498 362.336 244.967 362.336 248.49C362.336 252.699 358.854 252.364 352.4 247.535C345.741 242.553 345.685 240.498 352.175 239.239C358.105 238.089 358.648 236.856 358.672 224.494C358.681 219.824 359.519 211.334 360.533 205.628C361.548 199.922 362.062 194.753 361.677 194.141C361.292 193.529 357.59 193.033 353.449 193.037C349.309 193.042 341.545 192.417 336.195 191.649C324.195 189.928 321.098 188.062 324.987 184.895L324.988 184.896ZM336.369 444.62C340.775 440.393 345.424 434.68 346.7 431.926C347.976 429.171 350.657 425.775 352.657 424.377C356.65 421.588 360.424 415.466 359.275 413.642C358.874 413.005 356.252 412.432 353.45 412.369C350.647 412.306 345.345 411.635 341.667 410.878C336.175 409.748 334.91 409.022 334.59 406.819C334.16 403.846 334.632 403.699 343.325 404.101C349.087 404.367 358.227 401.495 360.191 398.801C362.16 396.099 361.156 376.741 358.689 369.857C356.132 362.72 355.489 351.408 357.366 346.566C358.93 342.532 357.4 340.839 350.681 339.165C343.879 337.471 342.559 335.474 347.119 333.774C351.416 332.171 353.826 332.26 353.826 334.02C353.826 334.815 355.218 336.56 356.919 337.896C359.883 340.225 360.03 340.947 360.465 355.235C360.715 363.435 361.766 373.364 362.801 377.3C364.804 384.917 365.254 393.11 364.006 399.231C363.436 402.027 362.437 403.138 360.054 403.625C353.926 404.878 349.82 408.906 354.67 408.906C358.927 408.906 362.337 412.341 362.337 416.629C362.337 421.944 361.272 424.411 358.978 424.411C356.049 424.411 348.963 430.247 348.963 432.66C348.963 433.85 347.877 436.177 346.551 437.831C343.4 441.76 329.575 453.498 328.889 452.826C328.597 452.54 331.963 448.847 336.369 444.62L336.369 444.62ZM343.168 493.321C346.614 487.599 349.628 483.109 349.867 483.343C350.381 483.848 338.179 504.321 337.363 504.321C336.529 504.321 336.426 504.517 343.168 493.321H343.168ZM366.577 333.757C370.19 336.698 372.064 334.295 372.064 326.721C372.064 322.803 372.611 319.266 373.28 318.861C374.042 318.399 374.495 320.973 374.495 325.762C374.495 331.647 373.985 333.852 372.272 335.374C369.463 337.867 366.463 337.906 365.506 335.461C364.367 332.548 364.612 332.157 366.576 333.757L366.577 333.757ZM369.464 280.099C370.095 281.083 370.915 288.597 371.286 296.796C371.717 306.334 371.586 309.986 370.921 306.935C369.292 299.448 368.128 278.016 369.464 280.099V280.099Z" fill="#A48B77"/>
</svg>
